<?xml version="1.0" standalone="no"?><!DOCTYPE svg PUBLIC "-//W3C//DTD SVG 1.1//EN" "http://www.w3.org/Graphics/SVG/1.1/DTD/svg11.dtd"><svg t="1488700745705" class="icon" style="" viewBox="0 0 1024 1024" version="1.1" xmlns="http://www.w3.org/2000/svg" p-id="2021" xmlns:xlink="http://www.w3.org/1999/xlink" width="128" height="128"><defs><style type="text/css"></style></defs><path d="M417.573888 64.334848l-302.08 0c-28.276736 0-51.2 22.923264-51.2 51.2l0 302.08c0 28.276736 22.923264 51.2 51.2 51.2l302.08 0c28.276736 0 51.2-22.923264 51.2-51.2l0-302.08C468.773888 87.258112 445.850624 64.334848 417.573888 64.334848zM404.773888 369.818624c0 19.328-15.669248 34.997248-34.998272 34.997248L163.291136 404.815872c-19.329024 0-34.998272-15.669248-34.998272-34.997248L128.292864 163.33312c0-19.329024 15.669248-34.998272 34.998272-34.998272l206.48448 0c19.329024 0 34.998272 15.669248 34.998272 34.998272L404.773888 369.818624z" p-id="2022" fill="#ffffff"></path><path d="M909.157376 64.334848l-302.08 0c-28.27776 0-51.2 22.923264-51.2 51.2l0 302.08c0 28.276736 22.92224 51.2 51.2 51.2l302.08 0c28.275712 0 51.2-22.923264 51.2-51.2l0-302.08C960.357376 87.258112 937.433088 64.334848 909.157376 64.334848zM896.357376 369.818624c0 19.328-15.670272 34.997248-34.998272 34.997248L654.875648 404.815872c-19.330048 0-34.998272-15.669248-34.998272-34.997248L619.877376 163.33312c0-19.329024 15.668224-34.998272 34.998272-34.998272l206.48448 0c19.328 0 34.998272 15.669248 34.998272 34.998272L896.3584 369.818624z" p-id="2023" fill="#ffffff"></path><path d="M417.573888 555.8784l-302.08 0c-28.276736 0-51.2 22.924288-51.2 51.2l0 302.08c0 28.27776 22.923264 51.2 51.2 51.2l302.08 0c28.276736 0 51.2-22.92224 51.2-51.2l0-302.08C468.773888 578.802688 445.850624 555.8784 417.573888 555.8784zM404.773888 861.361152c0 19.329024-15.669248 34.997248-34.998272 34.997248L163.291136 896.3584c-19.329024 0-34.998272-15.668224-34.998272-34.997248L128.292864 654.876672c0-19.328 15.669248-34.998272 34.998272-34.998272l206.48448 0c19.329024 0 34.998272 15.670272 34.998272 34.998272L404.773888 861.361152z" p-id="2024" fill="#ffffff"></path><path d="M909.157376 555.8784l-302.08 0c-28.27776 0-51.2 22.924288-51.2 51.2l0 302.08c0 28.27776 22.92224 51.2 51.2 51.2l302.08 0c28.275712 0 51.2-22.92224 51.2-51.2l0-302.08C960.357376 578.802688 937.433088 555.8784 909.157376 555.8784z" p-id="2025" fill="#ffffff"></path></svg>